<svg xmlns="http://www.w3.org/2000/svg" height="512pt" version="1.1" viewBox="0 -46 512 512" width="512pt">
<g id="surface1">
<path d="M 437 270 C 431.457031 270 426.0625 270.621094 420.859375 271.769531 C 416.675781 253.472656 401.351562 239.28125 381.96875 237.125 L 362 234.90625 L 362 214.820312 C 362 191.855469 344.789062 172.628906 321.96875 170.09375 C 321.785156 170.074219 321.605469 170.058594 321.421875 170.042969 L 231.667969 163.394531 C 205 160.617188 182 181.585938 182 208.152344 L 182 214.90625 L 148.65625 211.203125 L 91.421875 10.878906 C 89.582031 4.4375 83.695312 0 77 0 L 15 0 C 6.714844 0 0 6.714844 0 15 C 0 23.285156 6.714844 30 15 30 L 65.6875 30 L 122 227.101562 L 122 271.511719 C 117.152344 270.523438 112.136719 270 107 270 C 65.644531 270 32 303.644531 32 345 C 32 386.355469 65.644531 420 107 420 C 131.484375 420 153.261719 408.203125 166.960938 390 L 377.039062 390 C 390.738281 408.203125 412.515625 420 437 420 C 478.355469 420 512 386.355469 512 345 C 512 303.644531 478.355469 270 437 270 Z M 212 208.152344 C 212 199.121094 219.84375 192.261719 228.65625 193.242188 C 228.839844 193.265625 229.023438 193.28125 229.203125 193.296875 L 318.886719 199.9375 C 326.378906 200.882812 332 207.242188 332 214.820312 L 332 231.574219 L 212 218.242188 Z M 107 390 C 82.1875 390 62 369.8125 62 345 C 62 320.1875 82.1875 300 107 300 C 131.8125 300 152 320.1875 152 345 C 152 369.8125 131.8125 390 107 390 Z M 180.492188 360 C 181.480469 355.152344 182 350.136719 182 345 C 182 320.515625 170.203125 298.734375 151.996094 285.039062 C 151.996094 285.027344 152 285.015625 152 285 L 152 241.757812 C 168.164062 243.554688 368.902344 265.859375 378.65625 266.941406 C 386.265625 267.789062 392 274.195312 392 281.851562 L 392 285 C 392 285.011719 392.003906 285.027344 392.003906 285.039062 C 373.796875 298.734375 362 320.515625 362 345 C 362 350.136719 362.519531 355.152344 363.507812 360 Z M 437 390 C 412.1875 390 392 369.8125 392 345 C 392 320.1875 412.1875 300 437 300 C 461.8125 300 482 320.1875 482 345 C 482 369.8125 461.8125 390 437 390 Z M 437 390 " style=" stroke:none;fill-rule:nonzero;fill:rgb(0%,0%,0%);fill-opacity:1;" />
<path d="M 317 300 L 227 300 C 218.714844 300 212 306.714844 212 315 C 212 323.285156 218.714844 330 227 330 L 317 330 C 325.285156 330 332 323.285156 332 315 C 332 306.714844 325.285156 300 317 300 Z M 317 300 " style=" stroke:none;fill-rule:nonzero;fill:rgb(0%,0%,0%);fill-opacity:1;" />
<path d="M 122 345 C 122 353.285156 115.285156 360 107 360 C 98.714844 360 92 353.285156 92 345 C 92 336.714844 98.714844 330 107 330 C 115.285156 330 122 336.714844 122 345 Z M 122 345 " style=" stroke:none;fill-rule:nonzero;fill:rgb(0%,0%,0%);fill-opacity:1;" />
<path d="M 452 345 C 452 353.285156 445.285156 360 437 360 C 428.714844 360 422 353.285156 422 345 C 422 336.714844 428.714844 330 437 330 C 445.285156 330 452 336.714844 452 345 Z M 452 345 " style=" stroke:none;fill-rule:nonzero;fill:rgb(0%,0%,0%);fill-opacity:1;" />
</g>
</svg>